<?xml version="1.0" encoding="UTF-8"?>
<svg width="213px" height="32px" viewBox="0 0 213 32" version="1.1" xmlns="http://www.w3.org/2000/svg" xmlns:xlink="http://www.w3.org/1999/xlink">
    <!-- Generator: Sketch 47.1 (45422) - http://www.bohemiancoding.com/sketch -->
    <title>logo</title>
    <desc>Created with Sketch.</desc>
    <defs></defs>
    <g id="Website-Final" stroke="none" stroke-width="1" fill="none" fill-rule="evenodd">
        <g id="Desktop" transform="translate(-80.000000, -20.000000)">
            <g id="logo" transform="translate(80.000000, 20.000000)">
                <g id="Group-3" transform="translate(145.938531, 0.000000)">
                    <path d="M15.9670165,32 C7.14867678,32 0,24.836556 0,16 C0,7.163444 7.14867678,0 15.9670165,0 C24.7853562,0 31.934033,7.163444 31.934033,16 C31.934033,24.836556 24.7853562,32 15.9670165,32 Z M15.9670165,13.8034894 L22.503913,10.8650138 L16.2608096,8.07346189 C16.0404648,8 15.8201199,8 15.6732234,8.07346189 L9.43011994,10.8650138 L15.9670165,13.8034894 Z M16.7014993,15.0523416 L16.7014993,23.8677686 L22.8711544,21.1496786 C23.1649475,21.0027548 23.3118441,20.7823691 23.3118441,20.4885216 L23.3118441,12.1138659 L16.7014993,15.0523416 Z M15.2325337,15.0523416 L8.62218891,12.1138659 L8.62218891,20.4885216 C8.62218891,20.7823691 8.76908546,21.0762167 9.06287856,21.1496786 L15.2325337,23.8677686 L15.2325337,15.0523416 Z" id="Combined-Shape" fill="#FED15F"></path>
                    <g id="app" transform="translate(8.622189, 8.000000)"></g>
                </g>
                <g id="Group" transform="translate(181.065967, 0.000000)">
                    <path d="M15.9670165,32 C7.14867678,32 0,24.836556 0,16 C0,7.163444 7.14867678,0 15.9670165,0 C24.7853562,0 31.934033,7.163444 31.934033,16 C31.934033,24.836556 24.7853562,32 15.9670165,32 Z M7.98350825,8.64 L7.98350825,9.97818182 L13.9711394,9.97818182 L13.9711394,8.64 L7.98350825,8.64 Z M9.31409295,11.3163636 L9.31409295,12.6545455 L13.9711394,12.6545455 L13.9711394,11.3163636 L9.31409295,11.3163636 Z M10.6446777,13.9927273 L10.6446777,15.3309091 L13.9711394,15.3309091 L13.9711394,13.9927273 L10.6446777,13.9927273 Z M11.9752624,16.6690909 L11.9752624,18.0072727 L13.9711394,18.0072727 L13.9711394,16.6690909 L11.9752624,16.6690909 Z M23.5826181,15.4011636 L21.1948838,14.2008145 L20.6041042,11.8235345 C20.5302567,11.52512 20.2641398,11.3163636 19.9587706,11.3163636 L18.8776705,11.3163636 L15.3017241,11.3163636 C15.3017241,11.3163636 15.3017241,19.6472145 15.3017241,20.0145455 C15.3017241,20.3818764 15.335654,20.6836364 15.335654,20.6836364 C15.5033077,22.1850764 16.7587144,23.36 18.2955397,23.36 C19.8323651,23.36 21.0877717,22.1850764 21.2554254,20.6836364 L23.2852324,20.6836364 C23.6524738,20.6836364 23.9505247,20.3838836 23.9505247,20.0145455 L23.9505247,16 C23.9505247,15.7464145 23.8081522,15.5149091 23.5826181,15.4011636 Z M18.2955397,22.0218182 C17.3787669,22.0218182 16.6323088,21.2717673 16.6323088,20.3490909 C16.6323088,19.4264145 17.3787669,18.6763636 18.2955397,18.6763636 C19.2123126,18.6763636 19.9587706,19.4264145 19.9587706,20.3490909 C19.9587706,21.2717673 19.2123126,22.0218182 18.2955397,22.0218182 Z M16.6323088,14.6618182 L16.6323088,12.6545455 L19.5223388,12.6545455 L19.9587706,14.6618182 L16.6323088,14.6618182 Z" id="Combined-Shape" fill="#FED15F"></path>
                    <g id="delivery-fast" transform="translate(7.983508, 8.640000)"></g>
                </g>
                <g id="Group-2" transform="translate(110.811094, 0.000000)">
                    <path d="M15.9670165,32 C7.14867678,32 0,24.836556 0,16 C0,7.163444 7.14867678,0 15.9670165,0 C24.7853562,0 31.934033,7.163444 31.934033,16 C31.934033,24.836556 24.7853562,32 15.9670165,32 Z M23.7748876,10.4709617 C23.4102599,9.8346797 22.597858,9.61360263 21.95997,9.97707234 L17.9402736,12.2759149 L10.3120315,9.99034894 L8.6488006,10.9548936 L14.4454929,14.2740426 L14.4488193,14.2740426 L11.4370409,15.9946894 L9.44715142,15.4324255 L7.98883058,16.2655319 L10.1563531,17.8879319 C10.4694804,18.1220626 10.8700169,18.2068014 11.2514243,18.1196085 L14.1926818,17.4484766 C14.2569324,17.4338926 14.3186112,17.4097229 14.3756372,17.376783 L23.27991,12.2825532 C23.5863258,12.1078304 23.8106228,11.8187998 23.9034508,11.4790541 C23.9962788,11.1393084 23.9500327,10.7766825 23.7748876,10.4709617 Z M23.2852324,22.24 C23.6526632,22.24 23.9505247,21.9427933 23.9505247,21.5761702 C23.9505247,21.2095471 23.6526632,20.9123404 23.2852324,20.9123404 L8.6488006,20.9123404 C8.28136978,20.9123404 7.98350825,21.2095471 7.98350825,21.5761702 C7.98350825,21.9427933 8.28136978,22.24 8.6488006,22.24 L23.2852324,22.24 Z" id="Combined-Shape" fill="#FED15F"></path>
                    <g id="take-off" transform="translate(7.983508, 9.760000)"></g>
                </g>
                <path d="M20.7599195,15.5110112 C22.3754855,16.0233733 23.6409932,16.8795446 24.5564806,18.0795506 C25.471968,19.2795566 25.9297049,20.7559463 25.9297049,22.508764 C25.9297049,24.9896753 24.9671112,26.8975214 23.0418951,28.2323596 C21.1166789,29.5671977 18.309675,30.2346067 14.6207993,30.2346067 L0,30.2346067 L0,1.92 L13.8130203,1.92 C17.2595612,1.92 19.9050108,2.58066755 21.7494487,3.90202247 C23.5938866,5.22337739 24.5160917,7.01661789 24.5160917,9.28179775 C24.5160917,10.6570855 24.1862519,11.8840396 23.5265624,12.9626966 C22.866873,14.0413537 21.9446679,14.8907834 20.7599195,15.5110112 Z M6.50262069,6.85483146 L6.50262069,13.5289888 L13.0052414,13.5289888 C14.6208074,13.5289888 15.8459266,13.2458455 16.6806357,12.6795506 C17.5153448,12.1132556 17.9326931,11.2773089 17.9326931,10.1716854 C17.9326931,9.06606189 17.5153448,8.2368567 16.6806357,7.68404494 C15.8459266,7.13123319 14.6208074,6.85483146 13.0052414,6.85483146 L6.50262069,6.85483146 Z M14.1361319,25.2997753 C15.8594023,25.2997753 17.1585672,25.016632 18.0336655,24.4503371 C18.9087637,23.8840421 19.3463063,23.0076464 19.3463063,21.8211236 C19.3463063,19.4750444 17.6095989,18.3020225 14.1361319,18.3020225 L6.50262069,18.3020225 L6.50262069,25.2997753 L14.1361319,25.2997753 Z M56.8272504,1.92 L56.8272504,30.2346067 L50.2842407,30.2346067 L50.2842407,18.625618 L37.4405552,18.625618 L37.4405552,30.2346067 L30.8975455,30.2346067 L30.8975455,1.92 L37.4405552,1.92 L37.4405552,13.0840449 L50.2842407,13.0840449 L50.2842407,1.92 L56.8272504,1.92 Z M85.4226258,24.9761798 L85.4226258,30.2346067 L63.5318158,30.2346067 L63.5318158,1.92 L84.8975695,1.92 L84.8975695,7.17842697 L70.0344365,7.17842697 L70.0344365,13.3267416 L83.1608447,13.3267416 L83.1608447,18.4233708 L70.0344365,18.4233708 L70.0344365,24.9761798 L85.4226258,24.9761798 Z M95.8429745,30.72 C93.9312214,30.72 92.1743197,30.3627002 90.5722167,29.6480899 C88.9701138,28.9334796 87.6574861,27.9155122 86.6342943,26.5941573 L90.2692996,22.225618 C91.8040873,24.3020329 93.5542576,25.3402247 95.5198629,25.3402247 C98.1855468,25.3402247 99.5183688,23.7761954 99.5183688,20.6480899 L99.5183688,7.17842697 L89.5826875,7.17842697 L89.5826875,1.92 L106.02099,1.92 L106.02099,20.2840449 C106.02099,23.762714 105.159367,26.3716767 103.436097,28.1110112 C101.712826,29.8503458 99.1818109,30.72 95.8429745,30.72 Z" id="BHEJ" fill="#FFFFFF"></path>
            </g>
        </g>
    </g>
</svg>